<?xml version="1.0"?>
<svg xmlns="http://www.w3.org/2000/svg" height="512px" viewBox="-22 0 512 512" width="512px"><path d="m350.945312 104.136719c-37.90625 0-74.066406-16.394531-101.808593-46.152344-3.109375-3.332031-3.109375-8.503906 0-11.835937 27.742187-29.753907 63.902343-46.148438 101.800781-46.148438 37.90625 0 74.058594 16.394531 101.800781 46.148438 3.105469 3.332031 3.105469 8.496093 0 11.828124-27.734375 29.765626-63.886719 46.160157-101.792969 46.160157zm-83.265624-52.070313c23.527343 22.441406 52.804687 34.714844 83.265624 34.714844 30.460938 0 59.738282-12.273438 83.257813-34.714844-23.527344-22.441406-52.796875-34.710937-83.257813-34.710937-30.46875 0-59.738281 12.269531-83.265624 34.710937zm0 0" fill="#FFFFFF"/><path d="m376.972656 60.746094h-151.34375c-4.792968 0-8.679687-3.886719-8.679687-8.679688 0-4.789062 3.886719-8.675781 8.679687-8.675781h151.34375c4.789063 0 8.675782 3.886719 8.675782 8.675781 0 4.792969-3.878907 8.679688-8.675782 8.679688zm0 0" fill="#FFFFFF"/><path d="m398.273438 201.972656c-37.347657 0-71.582032-13.199218-96.894532-37.5-26.453125-25.382812-41.152344-60.902344-41.394531-99.996094-.019531-3.382812 1.925781-6.472656 4.988281-7.914062 3.054688-1.441406 6.683594-.960938 9.269532 1.214844 26.308593 22.113281 58.558593 32.066406 90.753906 28.023437 2.628906-.339843 5.273437.5625 7.167968 2.429688 27.28125 26.875 41.515626 64.257812 40.082032 105.28125-.15625 4.554687-3.808594 8.207031-8.363282 8.363281-1.875.070312-3.742187.097656-5.609374.097656zm-119.617188-119.445312c3.820312 27.085937 15.832031 51.285156 34.738281 69.425781 21.304688 20.441406 50.019531 31.871094 81.566407 32.628906-.738282-31.363281-11.96875-59.765625-32.125-81.089843-29.417969 2.71875-58.628907-4.632813-84.179688-20.964844zm0 0" fill="#FFFFFF"/><path d="m354.484375 152.785156c-2.21875 0-4.441406-.851562-6.132813-2.542968l-65.207031-65.207032c-3.394531-3.394531-3.394531-8.878906 0-12.269531 3.382813-3.394531 8.878907-3.394531 12.269531 0l65.207032 65.207031c3.394531 3.390625 3.394531 8.875 0 12.269532-1.691406 1.699218-3.914063 2.542968-6.136719 2.542968zm0 0" fill="#FFFFFF"/><path d="m234.304688 95.457031c-4.789063 0-8.675782-3.886719-8.675782-8.675781 0-38.28125-31.148437-69.425781-69.425781-69.425781-4.789063 0-8.675781-3.886719-8.675781-8.675781 0-4.792969 3.886718-8.679688 8.675781-8.679688 47.851563 0 86.78125 38.929688 86.78125 86.78125 0 4.789062-3.890625 8.675781-8.679687 8.675781zm0 0" fill="#FFFFFF"/><path d="m234.304688 130.167969c-19.144532 0-34.710938-15.566407-34.710938-34.710938 0-4.789062 3.886719-8.675781 8.675781-8.675781 4.792969 0 8.679688 3.886719 8.679688 8.675781 0 9.574219 7.785156 17.355469 17.355469 17.355469 4.789062 0 8.679687 3.890625 8.679687 8.679688 0 4.789062-3.890625 8.675781-8.679687 8.675781zm0 0" fill="#FFFFFF"/><path d="m234.304688 512c-129.195313 0-234.304688-105.109375-234.304688-234.304688 0-136.800781 117.925781-246.90625 257.464844-233.160156l3.210937.3125 2.230469 2.34375c3.421875 3.59375 7.125 7.046875 11.335938 10.585938l3.070312 2.578125.027344 4.007812c.207031 34.375 13.015625 65.476563 36.054687 87.589844 21.304688 20.441406 50.019531 31.871094 81.558594 32.628906-.773437-32.507812-12.863281-61.902343-34.503906-83.484375l11.21875-13.171875c60.703125 44.023438 96.941406 114.957031 96.941406 189.769531 0 129.195313-105.105469 234.304688-234.304687 234.304688zm0-451.253906c-119.625 0-216.949219 97.324218-216.949219 216.949218s97.324219 216.949219 216.949219 216.949219 216.949218-97.324219 216.949218-216.949219c0-48.078124-16.167968-94.425781-44.855468-131.921874 4.425781 15.011718 6.429687 31.082031 5.847656 47.726562l-.277344 8.089844-8.085938.285156c-39.574218 1.320312-75.933593-11.898438-102.503906-37.402344-25.550781-24.515625-40.136718-58.480468-41.316406-95.996094-2.621094-2.308593-5.078125-4.605468-7.421875-6.949218-6.160156-.519532-12.3125-.78125-18.335937-.78125zm0 0" fill="#FFFFFF"/><path d="m98.582031 164.882812c-2.066406 0-4.132812-.730468-5.789062-2.214843-3.566407-3.203125-3.871094-8.6875-.667969-12.253907 5.789062-6.457031 12.0625-12.566406 18.648438-18.171874 3.652343-3.105469 9.128906-2.664063 12.238281.992187 3.105469 3.652344 2.664062 9.128906-.992188 12.234375-5.996093 5.101562-11.707031 10.664062-16.972656 16.539062-1.71875 1.902344-4.085937 2.875-6.464844 2.875zm0 0" fill="#FFFFFF"/><path d="m52.066406 286.371094c-4.789062 0-8.675781-3.886719-8.675781-8.675782 0-31.726562 7.972656-63.167968 23.074219-90.929687 2.28125-4.207031 7.558594-5.769531 11.765625-3.476563 4.210937 2.289063 5.773437 7.558594 3.480469 11.765626-13.71875 25.226562-20.964844 53.804687-20.964844 82.640624 0 4.789063-3.886719 8.675782-8.679688 8.675782zm0 0" fill="#FFFFFF"/><path d="m130.167969 425.21875c-14.351563 0-26.03125-11.679688-26.03125-26.03125 0-4.792969 3.886719-8.679688 8.675781-8.679688 4.792969 0 8.679688 3.886719 8.679688 8.679688 0 4.78125 3.886718 8.675781 8.675781 8.675781 4.792969 0 8.679687 3.890625 8.679687 8.679688 0 4.789062-3.886718 8.675781-8.679687 8.675781zm0 0" fill="#FFFFFF"/><path d="m216.949219 416.542969c-14.351563 0-26.035157-11.679688-26.035157-26.035157 0-4.789062 3.890626-8.675781 8.679688-8.675781s8.675781 3.886719 8.675781 8.675781c0 4.78125 3.890625 8.679688 8.679688 8.679688 4.789062 0 8.679687 3.886719 8.679687 8.675781 0 4.792969-3.890625 8.679688-8.679687 8.679688zm0 0" fill="#FFFFFF"/><path d="m182.238281 459.933594c-4.792969 0-8.679687-3.890625-8.679687-8.679688 0-4.78125-3.886719-8.675781-8.675782-8.675781-4.792968 0-8.679687-3.890625-8.679687-8.679687 0-4.789063 3.886719-8.679688 8.679687-8.679688 14.351563 0 26.03125 11.683594 26.03125 26.035156 0 4.789063-3.886718 8.679688-8.675781 8.679688zm0 0" fill="#FFFFFF"/><path d="m147.527344 390.507812c-4.792969 0-8.679688-3.886718-8.679688-8.675781 0-4.792969 3.886719-8.679687 8.679688-8.679687 4.789062 0 8.675781-3.894532 8.675781-8.679688 0-4.789062 3.886719-8.675781 8.679687-8.675781 4.789063 0 8.675782 3.886719 8.675782 8.675781 0 14.355469-11.679688 26.035156-26.03125 26.035156zm0 0" fill="#FFFFFF"/></svg>
